<?xml version="1.0" standalone="no"?>
<!DOCTYPE svg PUBLIC "-//W3C//DTD SVG 20010904//EN"
 "http://www.w3.org/TR/2001/REC-SVG-20010904/DTD/svg10.dtd">
<svg version="1.0" xmlns="http://www.w3.org/2000/svg"
 width="300.000000pt" height="173.000000pt" viewBox="0 0 300.000000 173.000000"
 preserveAspectRatio="xMidYMid meet">
<metadata>
Created by potrace 1.10, written by Peter Selinger 2001-2011
</metadata>
<g transform="translate(0.000000,173.000000) scale(0.100000,-0.100000)"
fill="#000000" stroke="none">
<path d="M31 1673 c18 -32 42 -74 54 -93 12 -19 25 -41 29 -47 5 -9 1 -13 -12
-13 -12 0 -31 22 -58 70 -21 38 -41 65 -42 60 -2 -6 0 -16 5 -23 5 -7 22 -33
37 -59 25 -44 25 -48 8 -48 -10 0 -25 11 -32 25 -7 14 -15 23 -17 21 -3 -2 0
-13 6 -24 8 -15 8 -22 -2 -25 -6 -3 27 -6 75 -6 73 -1 86 -3 82 -16 -5 -12
-24 -15 -85 -15 -46 0 -79 -4 -79 -10 0 -6 33 -10 80 -10 76 0 81 1 92 25 6
14 20 25 30 25 18 0 18 -2 -3 -40 l-22 -39 -91 -4 -91 -3 95 -2 95 -2 25 45
c15 28 32 45 43 45 20 0 17 -9 -29 -82 l-24 -37 -102 -4 -103 -3 110 0 109 1
36 62 c23 41 41 63 53 63 10 0 16 -3 14 -7 -2 -5 -23 -41 -46 -80 l-42 -73
-114 0 c-72 0 -115 -4 -115 -10 0 -7 41 -10 117 -8 l117 3 48 80 c26 44 49 84
50 89 2 4 11 7 20 5 14 -3 7 -22 -40 -104 l-58 -100 -128 -3 c-70 -1 -126 -6
-124 -10 14 -34 112 -191 116 -188 2 3 -13 36 -35 73 -66 112 -67 113 -45 113
11 0 25 -13 35 -32 9 -18 30 -56 47 -85 28 -47 29 -52 15 -67 -31 -31 -52 -19
-90 50 -20 36 -39 63 -42 61 -3 -3 11 -33 31 -66 32 -55 33 -61 16 -61 -11 0
-26 12 -34 28 -10 18 -15 22 -16 10 0 -9 5 -20 11 -24 8 -4 7 -9 -2 -15 -9 -5
14 -9 58 -9 l71 0 59 103 59 102 126 3 126 3 64 109 63 110 242 0 c211 0 242
-2 237 -15 -5 -13 -41 -15 -233 -15 l-227 0 -63 -110 -63 -109 -126 -3 -126
-3 -62 -105 -62 -105 -79 -6 -78 -6 84 1 84 1 61 107 61 108 126 0 126 0 59
105 59 104 217 1 c189 0 217 -2 212 -15 -5 -13 -38 -15 -208 -15 l-201 0 -60
-105 -60 -105 -125 0 -126 0 -63 -110 -63 -109 -91 -4 -92 -3 95 -2 96 -2 59
105 60 104 126 1 127 0 63 110 63 110 193 0 c167 0 192 -2 187 -15 -5 -13 -35
-15 -184 -15 l-178 0 -64 -110 -63 -110 -125 0 -125 0 -60 -105 -60 -105 -102
0 c-62 0 -103 -4 -103 -10 0 -6 41 -10 104 -10 l103 0 63 110 63 110 126 0
126 0 63 110 63 110 166 0 c127 0 164 -3 161 -12 -3 -9 -48 -14 -157 -18
l-153 -5 -62 -105 -62 -105 -126 -3 -127 -3 -62 -109 -63 -109 -113 -4 -113
-3 117 1 118 0 62 105 63 105 127 5 127 5 57 100 58 100 143 5 c79 3 145 4
147 3 2 -1 -2 -9 -9 -17 -9 -12 -41 -16 -137 -18 l-125 -3 -58 -100 -58 -100
-126 -3 -125 -3 -41 -68 -41 -69 86 -151 c48 -83 85 -154 83 -158 -1 -5 -29
-54 -61 -110 l-59 -102 61 -104 c34 -57 61 -107 61 -111 0 -5 -25 -51 -56
-104 -31 -54 -59 -100 -61 -104 -2 -5 -1 -8 4 -8 4 0 22 26 40 58 18 31 46 80
62 108 l29 51 -62 107 -63 108 63 108 62 108 -84 146 c-81 140 -92 165 -77
179 5 6 153 -241 185 -308 7 -16 -3 -41 -52 -127 l-62 -106 61 -105 c34 -57
61 -107 61 -111 0 -4 -22 -44 -48 -89 -66 -111 -74 -127 -65 -127 4 0 22 26
40 58 18 31 45 80 62 107 l29 50 -63 109 -62 108 63 108 62 108 -99 173 c-58
100 -97 179 -94 187 3 9 9 12 14 6 10 -10 188 -317 203 -349 8 -17 -2 -41 -52
-127 l-62 -106 61 -106 c34 -58 61 -108 61 -111 0 -4 -25 -50 -56 -103 -31
-54 -59 -100 -61 -105 -2 -4 -1 -7 4 -7 4 0 22 26 40 58 18 31 45 80 62 108
l29 50 -63 108 -63 108 63 108 63 108 -28 48 c-15 27 -66 115 -113 195 -60
104 -82 151 -75 160 8 12 11 12 19 -1 25 -37 229 -395 229 -401 0 -4 -27 -54
-60 -112 l-60 -105 55 -96 c31 -53 58 -102 61 -110 5 -14 -99 -204 -120 -218
-7 -5 -5 -8 4 -8 9 0 64 85 137 214 68 118 123 217 123 219 0 3 -27 51 -60
107 -33 56 -60 104 -60 107 0 6 83 152 106 187 12 18 14 18 20 2 4 -10 -10
-45 -40 -96 -25 -44 -46 -85 -46 -91 0 -11 70 -138 106 -194 12 -19 1 -42
-110 -235 -69 -118 -123 -217 -120 -219 2 -2 6 -2 8 0 7 9 246 427 246 432 0
3 -27 53 -61 111 l-60 105 42 73 c51 89 47 84 60 71 8 -8 2 -28 -25 -71 -20
-33 -36 -66 -36 -73 0 -8 15 -39 33 -69 18 -30 45 -76 59 -101 l27 -46 -124
-214 c-68 -117 -122 -216 -119 -218 6 -6 -3 -21 134 218 96 166 121 217 113
230 -5 9 -33 57 -62 108 l-53 92 32 56 c24 42 35 54 44 45 8 -8 5 -21 -12 -50
-12 -21 -22 -44 -22 -51 0 -10 68 -136 106 -194 12 -18 0 -43 -110 -235 -68
-118 -122 -217 -120 -219 2 -2 6 -2 8 0 8 10 246 427 246 432 0 3 -27 52 -61
110 -59 104 -60 106 -45 136 9 16 20 32 25 35 13 9 23 -26 11 -38 -17 -17 -12
-38 23 -96 18 -30 45 -76 59 -101 l27 -46 -124 -214 c-68 -118 -122 -216 -119
-218 6 -6 0 -16 134 218 94 164 121 218 113 230 -83 138 -114 201 -105 216 7
14 21 -4 67 -87 32 -56 64 -112 72 -123 13 -21 4 -39 -213 -413 -14 -23 -20
-42 -15 -42 5 0 13 9 16 20 6 18 15 20 109 20 l102 0 60 103 60 102 143 3
c112 2 142 0 139 -10 -3 -10 -40 -14 -134 -16 l-129 -3 -59 -104 -60 -105
-115 -2 -116 -2 114 -3 c75 -3 118 0 127 8 11 9 18 8 30 -1 13 -12 14 -10 3
14 -9 19 -9 30 -2 37 8 8 16 3 27 -19 9 -17 21 -34 28 -38 7 -4 1 12 -14 37
-23 41 -27 69 -9 69 4 0 20 -22 35 -50 15 -27 32 -53 38 -56 7 -4 -5 23 -26
59 -26 48 -34 72 -28 83 7 13 18 0 50 -59 23 -42 47 -79 53 -82 12 -8 -7 30
-56 112 -32 53 -33 58 -18 75 30 33 48 21 97 -63 33 -56 45 -86 40 -101 -5
-16 -16 -2 -61 76 -31 53 -58 94 -61 92 -7 -8 101 -190 113 -190 6 1 37 46 70
102 l60 102 125 0 126 0 63 110 62 110 140 0 c76 0 139 -4 139 -9 0 -21 -33
-32 -87 -31 -32 1 -85 1 -119 1 l-60 -1 -60 -105 -59 -105 -127 0 -126 0 -47
-82 c-26 -46 -50 -86 -52 -90 -2 -5 -1 -8 4 -8 4 0 30 39 56 85 l48 84 127 3
127 3 59 103 59 102 123 0 c121 0 124 1 140 25 9 14 23 25 30 25 19 0 18 -9
-6 -47 l-20 -33 -124 0 -124 0 -62 -105 -61 -105 -124 0 -124 0 -37 -63 c-48
-80 -47 -77 -37 -77 5 0 23 27 41 60 l33 59 127 3 126 3 64 108 63 107 124 0
124 0 27 45 c14 25 32 45 40 45 19 0 18 -5 -17 -66 l-30 -53 -127 -3 -127 -3
-60 -105 -61 -105 -128 -5 -128 -5 -25 -42 c-14 -24 -21 -43 -17 -43 5 0 18
17 29 38 l20 37 127 3 127 3 42 72 c23 40 53 89 66 109 l23 38 124 0 124 0 37
65 c20 36 43 65 50 65 21 0 20 -5 -28 -86 l-42 -74 -121 0 c-140 0 -126 9
-204 -127 l-52 -92 -125 -3 c-118 -3 -127 -4 -141 -26 -8 -13 -10 -22 -4 -22
6 0 14 9 17 20 6 19 15 20 134 20 l128 0 59 103 59 102 127 3 127 3 51 89 c28
50 58 90 66 90 8 0 14 -3 14 -7 0 -3 -26 -50 -57 -105 l-57 -98 -125 0 -126 0
-59 -105 -60 -104 -130 -4 -131 -3 137 -2 c102 -1 137 1 141 11 3 9 8 9 21 -2
16 -13 16 -12 5 13 -9 19 -9 30 -2 37 8 8 16 3 27 -19 9 -17 21 -34 28 -38 7
-4 1 12 -14 37 -23 41 -27 69 -9 69 4 0 20 -22 35 -50 15 -27 32 -53 38 -56 7
-4 -5 23 -26 59 -27 48 -34 72 -28 83 7 13 18 1 51 -60 23 -41 47 -79 53 -82
11 -7 -48 106 -78 150 -12 17 -11 23 3 38 30 34 49 22 99 -67 l49 -85 103 0
c95 0 104 -2 109 -20 3 -11 9 -20 15 -20 10 0 9 2 -62 125 l-51 89 22 41 c69
122 96 165 102 158 14 -13 6 -34 -38 -109 -25 -41 -45 -81 -45 -87 0 -14 109
-205 122 -213 12 -8 -6 27 -67 130 -33 56 -44 84 -38 96 29 57 79 140 84 140
20 0 13 -34 -17 -84 -19 -31 -34 -62 -34 -68 0 -16 108 -206 121 -214 13 -8
-8 33 -68 135 l-45 76 27 50 c36 65 43 72 51 52 3 -10 -3 -33 -15 -52 -12 -20
-21 -41 -21 -47 0 -16 108 -206 121 -214 13 -8 -4 26 -66 131 l-47 79 17 33
c10 18 22 33 26 33 16 0 19 -19 8 -44 -10 -22 -6 -36 45 -125 31 -55 61 -103
67 -107 13 -8 -4 26 -65 129 -48 81 -52 92 -37 102 6 3 42 -49 81 -115 39 -66
74 -120 78 -120 4 0 24 30 44 68 21 37 48 85 62 107 l24 40 -63 108 -62 109
56 99 c31 54 59 98 62 99 22 1 11 -37 -33 -112 l-49 -86 61 -106 c34 -58 60
-112 57 -118 -2 -7 -30 -56 -60 -108 -31 -52 -54 -96 -51 -99 5 -6 1 -12 69
104 32 55 58 105 58 111 0 6 -25 54 -56 107 -31 53 -57 102 -57 108 0 7 19 46
42 86 30 52 45 70 52 63 8 -8 0 -32 -27 -81 l-37 -69 60 -105 c33 -57 60 -107
60 -110 0 -4 -25 -50 -56 -103 -31 -54 -59 -100 -61 -104 -2 -5 -1 -8 4 -8 4
0 22 26 40 58 18 31 46 80 62 108 l29 51 -63 108 -63 108 31 51 c39 65 36 61
48 49 8 -8 3 -24 -16 -57 l-26 -45 60 -104 c34 -57 61 -107 61 -111 0 -13
-112 -200 -124 -208 -7 -5 -6 -8 4 -8 8 0 32 30 52 68 21 37 49 85 62 107 l25
41 -59 99 c-33 55 -59 106 -60 113 0 7 7 27 16 44 11 22 19 27 27 19 7 -7 7
-18 -1 -36 -11 -24 -7 -36 48 -129 33 -57 60 -106 60 -110 0 -5 -25 -51 -56
-104 -31 -54 -59 -100 -61 -104 -2 -5 -1 -8 4 -8 4 0 22 26 40 58 18 31 46 80
62 108 l29 51 -63 109 c-49 83 -61 112 -53 122 11 13 51 -47 129 -194 l22 -40
-50 -85 c-67 -114 -75 -129 -66 -129 4 0 35 47 67 105 l60 105 56 0 c50 0 56
2 57 21 2 20 1 20 -11 4 -7 -9 -20 -16 -29 -14 -14 3 -12 11 13 51 17 27 30
54 30 60 -1 7 -17 -15 -36 -50 -38 -65 -58 -76 -87 -44 -15 16 -12 24 34 105
28 48 57 87 65 87 8 0 14 -3 14 -6 0 -4 -23 -47 -51 -96 -28 -49 -49 -91 -47
-93 7 -7 108 170 108 188 0 14 -16 17 -122 19 l-123 3 -59 103 -59 102 -126 0
-126 1 -61 107 -62 107 -122 3 c-90 2 -120 6 -117 15 2 8 41 13 129 15 l125 3
62 -105 61 -105 126 -3 126 -3 62 -107 61 -107 115 1 115 2 -110 3 -110 4 -63
109 -64 109 -126 3 -127 3 -57 100 -58 100 -125 5 c-112 4 -124 7 -113 20 11
13 35 15 134 12 l121 -4 59 -104 59 -104 126 0 125 0 64 -110 65 -110 99 0
c55 0 97 2 94 5 -2 3 -43 5 -90 6 -47 1 -89 4 -95 8 -5 3 -36 52 -68 109 l-60
102 -125 0 -125 0 -63 110 -64 110 -119 0 c-101 0 -118 2 -113 15 5 12 29 15
128 15 l122 0 63 -110 63 -110 127 0 126 0 59 -105 60 -105 90 2 91 2 -88 5
-87 6 -58 100 -57 100 -127 3 -127 3 -63 109 -62 110 -123 0 c-105 0 -122 2
-117 15 5 12 29 15 133 15 l126 -1 61 -107 62 -107 123 -2 c142 -2 123 11 204
-130 l47 -83 76 2 77 2 -73 5 -74 6 -62 105 -62 105 -127 5 -127 5 -58 100
-57 100 -123 3 c-67 1 -122 6 -122 11 0 23 33 29 138 28 89 0 115 -4 125 -16
8 -9 37 -58 66 -108 l53 -93 126 0 127 0 60 -108 60 -107 63 -3 62 -3 -30 44
c-31 47 -36 62 -21 71 5 3 18 -9 30 -27 26 -40 28 -23 2 19 -18 30 -14 63 6
51 5 -3 10 10 10 30 1 33 -3 28 -53 -58 -30 -52 -54 -98 -54 -104 0 -5 -7 -2
-14 8 -13 16 -7 30 46 120 33 56 66 105 72 109 7 5 6 8 -4 8 -8 0 -40 -44 -73
-100 -32 -55 -63 -98 -68 -94 -14 9 -10 19 51 127 44 77 60 97 78 97 12 0 22
5 22 10 0 6 -10 10 -23 10 -19 0 -34 -19 -82 -104 -45 -79 -63 -102 -72 -94
-10 8 -6 22 18 61 16 29 44 78 61 109 27 47 37 58 63 61 26 3 25 4 -5 3 -34
-1 -37 -5 -94 -104 -47 -82 -61 -100 -68 -87 -7 12 6 43 50 118 l59 102 49 6
49 6 -54 -1 -54 -1 -55 -97 c-31 -54 -59 -98 -63 -98 -23 0 -9 38 45 130 62
104 63 105 102 106 59 1 81 5 66 11 -21 8 -55 84 -43 96 6 6 16 -1 30 -24 25
-41 27 -33 5 15 -16 33 -12 85 5 58 4 -6 7 4 7 23 0 33 -2 31 -48 -48 -68
-118 -65 -114 -76 -98 -7 9 8 44 51 117 33 57 64 104 68 104 5 0 9 5 9 10 0
29 -25 -1 -80 -95 -54 -92 -80 -119 -80 -84 0 6 27 57 61 114 42 73 67 105 82
108 19 4 18 4 -5 6 -23 1 -32 -10 -85 -104 -54 -96 -73 -116 -73 -78 0 7 26
58 57 113 53 93 59 99 92 103 l36 4 -40 1 -40 2 -47 -83 c-64 -113 -75 -126
-83 -106 -3 10 17 55 52 115 l59 99 47 3 c62 4 61 22 -1 22 l-48 0 -59 -104
c-46 -81 -63 -102 -72 -94 -11 8 -7 21 17 62 17 28 45 77 62 109 l33 57 58 0
c53 0 57 1 42 16 -28 29 -46 73 -37 91 8 14 13 10 30 -23 12 -21 21 -32 21
-24 1 8 -8 28 -19 45 -14 22 -16 32 -8 43 7 8 13 9 18 3 3 -6 6 5 6 24 0 39 2
41 -70 -82 l-48 -82 -126 -3 -127 -3 -59 -103 c-46 -81 -61 -100 -68 -87 -7
11 7 43 49 118 l59 102 127 3 127 3 50 85 c28 48 49 88 46 91 -5 5 -17 -12
-68 -102 l-34 -60 -128 -5 -129 -5 -55 -97 c-31 -54 -59 -98 -63 -98 -22 0
-10 37 43 125 l59 100 127 5 127 5 37 60 c20 33 37 64 37 68 2 18 -19 -6 -48
-58 l-31 -54 -127 -3 -127 -3 -56 -97 c-64 -112 -67 -116 -76 -95 -3 9 19 58
56 121 l62 106 124 0 124 0 26 41 c14 22 23 43 20 46 -5 5 -46 -56 -46 -69 0
-5 -58 -8 -129 -8 l-129 0 -57 -100 c-31 -55 -61 -100 -66 -100 -20 0 -6 38
48 132 l57 98 126 0 c116 0 126 1 138 21 7 12 11 23 8 26 -2 3 -11 -4 -18 -16
-12 -19 -22 -21 -138 -21 l-125 0 -58 -101 c-43 -75 -62 -98 -70 -90 -8 8 -5
21 11 48 12 21 39 68 60 105 l37 67 128 4 127 3 -132 -1 -133 0 -57 -100 c-32
-55 -58 -105 -58 -112 0 -7 27 -58 60 -114 l60 -101 -61 -104 c-33 -57 -67
-104 -75 -104 -8 0 -14 2 -14 6 0 3 25 48 55 101 31 53 53 103 50 111 -3 8
-30 57 -60 108 -30 51 -55 95 -55 98 0 2 20 38 44 79 60 100 80 141 67 133
-13 -8 -121 -198 -121 -213 0 -6 27 -58 60 -114 53 -92 58 -105 46 -124 -7
-11 -34 -57 -60 -102 -33 -57 -54 -83 -66 -83 -16 0 -9 17 41 100 32 55 59
103 59 107 0 3 -27 52 -60 109 -33 56 -60 105 -60 108 0 3 21 40 46 83 60 102
78 137 66 129 -13 -8 -122 -199 -122 -213 0 -6 27 -58 60 -114 l59 -103 -18
-30 c-10 -17 -37 -64 -61 -103 -28 -48 -48 -73 -61 -73 -15 0 -12 9 20 63 21
34 48 81 61 104 l23 42 -62 105 c-33 58 -61 107 -61 110 0 2 20 38 44 79 60
100 80 141 67 133 -13 -8 -121 -198 -121 -213 0 -6 27 -58 60 -114 53 -92 58
-105 46 -124 -7 -11 -34 -57 -60 -102 -33 -57 -54 -83 -66 -83 -16 0 -9 17 41
101 35 58 58 108 54 116 -3 9 -30 58 -60 109 -30 51 -55 95 -55 98 0 2 20 38
44 79 59 99 80 141 68 133 -12 -7 -122 -199 -122 -213 0 -5 27 -57 60 -114 53
-92 58 -105 46 -124 -7 -11 -34 -57 -60 -103 -30 -51 -54 -82 -64 -82 -24 0
-48 17 -39 27 5 4 12 1 16 -6 6 -9 26 18 66 88 l57 101 -61 104 c-34 57 -61
107 -61 109 0 3 27 52 60 109 l59 103 -64 3 c-36 2 -94 2 -129 0 l-64 -3 59
-100 c32 -55 58 -104 59 -109 0 -6 -27 -57 -61 -114 l-60 -104 61 -106 c33
-58 60 -110 58 -116 -2 -6 -28 -55 -58 -108 -36 -65 -61 -98 -72 -98 -10 0
-18 2 -18 3 0 2 27 50 59 106 l59 103 -63 107 -63 108 63 108 63 108 -29 51
c-16 28 -44 77 -62 108 -18 32 -36 58 -40 58 -9 0 -1 -16 65 -127 26 -45 48
-85 48 -89 0 -4 -27 -54 -61 -111 l-61 -104 59 -102 c32 -56 59 -105 61 -109
2 -5 -23 -55 -55 -113 -39 -70 -64 -104 -75 -105 -10 0 -18 2 -18 3 0 2 27 50
59 106 l59 103 -59 101 c-32 56 -59 108 -59 115 0 7 26 56 57 109 31 53 56
101 56 107 0 6 -26 56 -58 111 -68 116 -64 110 -69 104 -3 -3 20 -47 51 -99
30 -52 58 -101 60 -107 3 -7 -23 -60 -57 -119 l-62 -105 53 -92 c29 -51 57
-99 63 -108 7 -13 -4 -41 -49 -119 -53 -92 -77 -121 -90 -108 -3 3 22 51 54
107 l59 103 -63 107 -63 108 63 108 63 108 -29 51 c-16 28 -44 77 -62 108 -18
32 -36 58 -40 58 -9 0 -1 -16 65 -127 26 -45 48 -85 48 -89 0 -4 -27 -54 -61
-111 l-61 -104 59 -102 c32 -56 59 -105 61 -109 2 -5 -23 -55 -55 -113 -39
-70 -64 -104 -75 -105 -10 0 -18 2 -18 3 0 2 27 50 59 106 l59 103 -63 107
-63 108 63 108 63 108 -29 51 c-16 28 -44 77 -62 108 -18 32 -36 58 -40 58 -5
0 -6 -3 -4 -7 2 -5 30 -51 61 -105 31 -53 56 -99 56 -103 0 -4 -27 -54 -61
-112 l-60 -105 58 -101 c32 -56 60 -105 61 -110 6 -12 -109 -208 -125 -214
-28 -11 -22 6 35 107 l59 102 -62 108 -63 108 63 108 64 108 -25 41 c-14 22
-41 70 -62 107 l-37 68 -120 -1 c-66 -1 -113 -3 -105 -5 8 -3 37 -43 63 -89
l48 -85 104 0 c82 0 104 -3 109 -15 5 -13 -12 -15 -112 -15 l-118 0 -59 105
c-33 57 -63 105 -67 105 -7 0 -118 -182 -118 -195 0 -3 4 -4 9 0 5 3 12 1 16
-5 10 -16 -22 -11 -40 6 -14 14 -14 19 -2 38 35 55 89 159 79 152 -6 -3 -30
-41 -53 -82 -33 -61 -44 -73 -51 -60 -6 11 1 35 28 83 21 36 33 63 26 59 -6
-3 -23 -29 -38 -56 -15 -28 -31 -50 -35 -50 -17 0 -14 27 10 69 13 24 19 41
13 37 -7 -4 -19 -21 -28 -38 -21 -40 -44 -23 -26 19 11 25 11 26 -2 10 -14
-18 -15 -18 -24 0 -6 10 -13 16 -15 13 -3 -3 21 -50 54 -105 32 -55 58 -104
59 -108 0 -17 -113 -209 -127 -214 -29 -11 -23 9 31 100 30 52 56 99 58 104 4
13 -114 222 -125 223 -5 0 -6 -3 -4 -7 2 -5 30 -52 61 -106 32 -54 55 -105 52
-113 -19 -49 -120 -204 -133 -204 -19 0 -17 4 50 119 l56 94 -30 51 c-16 28
-44 77 -62 108 -18 32 -36 58 -40 58 -5 0 -6 -3 -4 -7 2 -5 30 -52 61 -106 32
-54 55 -105 52 -113 -18 -46 -119 -204 -132 -204 -8 0 -14 3 -14 6 0 3 25 48
55 99 30 51 55 97 57 102 4 13 -114 223 -125 223 -5 0 -6 -3 -4 -7 2 -5 30
-52 61 -106 32 -54 55 -105 52 -113 -18 -46 -119 -204 -132 -204 -8 0 -14 3
-14 6 0 3 24 47 54 97 30 51 56 97 58 103 4 14 -114 224 -125 224 -5 0 -6 -3
-4 -7 2 -5 30 -52 61 -106 32 -54 55 -105 52 -113 -18 -46 -119 -204 -132
-204 -8 0 -14 3 -14 6 0 3 25 48 55 99 30 51 55 97 57 102 4 13 -112 214 -126
219 -7 3 -67 3 -134 2 l-122 -3 33 -55 c89 -149 89 -150 69 -150 -13 0 -36 31
-77 103 -67 118 -64 112 -70 106 -2 -3 10 -29 28 -59 88 -148 89 -150 70 -150
-13 0 -37 32 -77 103 -68 117 -65 112 -71 106 -2 -3 10 -29 28 -59 88 -148 89
-150 70 -150 -13 0 -37 32 -77 103 -68 117 -65 112 -71 106 -2 -3 10 -29 28
-59 88 -148 89 -150 70 -150 -13 0 -37 32 -77 103 -68 117 -65 112 -70 106 -4
-4 41 -87 96 -176 19 -32 19 -33 1 -33 -14 0 -36 30 -79 105 l-59 105 -240 0
c-132 0 -235 -4 -229 -8 6 -4 33 -44 59 -89 l48 -83 126 0 126 0 55 -98 c61
-107 66 -120 53 -133 -5 -5 -33 34 -69 96 l-59 105 -126 0 -125 0 -60 105
c-32 58 -63 105 -67 105 -5 0 6 -26 24 -57z m109 -16 l36 -62 128 -5 128 -5
58 -100 c51 -87 63 -126 41 -125 -3 0 -31 44 -61 98 l-56 97 -126 3 -126 3
-42 72 c-24 40 -45 75 -47 80 -2 4 4 7 14 7 12 0 30 -22 53 -63z m38 23 l23
-40 124 0 124 0 58 -97 c31 -54 57 -104 57 -113 2 -38 -18 -17 -72 75 l-57
100 -128 5 -128 5 -30 53 c-27 46 -29 52 -12 52 11 0 27 -16 41 -40z m40 20
c11 -18 23 -20 136 -20 l124 0 62 -107 c41 -72 57 -110 51 -116 -13 -13 -10
-18 -74 93 l-55 95 -128 5 -128 5 -19 33 c-18 31 -18 32 0 32 10 0 24 -9 31
-20z m345 -80 c59 -102 63 -115 48 -124 -5 -4 -35 39 -67 94 l-58 100 -127 0
c-104 0 -128 3 -133 15 -5 13 14 15 137 15 l142 0 58 -100z m451 85 c5 -13
-12 -15 -113 -15 -96 0 -120 3 -125 15 -5 13 12 15 113 15 96 0 120 -3 125
-15z m626 -48 l36 -62 79 -5 c50 -3 80 -10 83 -17 3 -10 -19 -13 -86 -13 l-90
0 -42 73 c-24 39 -45 75 -47 80 -2 4 4 7 14 7 12 0 30 -22 53 -63z m38 23 c21
-38 25 -40 71 -40 32 0 53 -5 61 -15 12 -14 5 -16 -59 -13 l-72 3 -29 53 c-26
45 -28 52 -13 52 10 0 28 -17 41 -40z m39 21 c7 -11 24 -21 39 -23 15 -2 29
-9 32 -16 3 -10 -7 -12 -39 -10 -36 3 -46 8 -62 36 -18 31 -18 32 0 32 10 0
24 -9 30 -19z m47 4 c3 -10 -1 -15 -13 -15 -10 0 -21 7 -25 15 -3 10 1 15 13
15 10 0 21 -7 25 -15z m474 3 c-3 -9 -36 -14 -105 -16 -83 -2 -102 0 -106 13
-6 13 9 15 104 15 84 0 110 -3 107 -12z m-692 -60 c85 -143 78 -128 57 -128
-21 0 -117 155 -109 177 8 21 12 17 52 -49z m-508 15 c6 -21 -221 -18 -238 2
-12 14 1 15 110 13 88 -2 125 -7 128 -15z m1176 2 c-5 -11 -23 -15 -79 -15
-52 0 -76 4 -85 15 -11 13 -1 15 78 15 77 0 90 -2 86 -15z m-716 -17 c6 -13
25 -47 42 -75 27 -46 28 -53 12 -53 -20 0 -93 117 -85 137 8 19 18 16 31 -9z
m-438 -23 c12 -14 -1 -15 -110 -13 -88 2 -125 7 -128 16 -6 20 221 17 238 -3z
m1128 3 c-3 -8 -24 -13 -58 -13 -34 0 -55 5 -57 13 -4 9 12 12 57 12 45 0 61
-3 58 -12z m-694 -60 c24 -44 25 -48 8 -48 -23 0 -65 71 -56 95 8 19 12 15 48
-47z m-406 4 c3 -10 -22 -12 -114 -10 -85 2 -119 7 -122 16 -3 10 22 12 114
10 85 -2 119 -7 122 -16z m1072 3 c-15 -18 -51 -16 -58 3 -2 8 8 12 33 12 33
0 36 -2 25 -15z m-707 -25 c18 -29 18 -30 -2 -30 -22 0 -41 27 -34 48 7 19 17
14 36 -18z m1500 0 c17 -28 17 -30 1 -30 -21 0 -44 29 -37 47 8 20 17 16 36
-17z m-1839 -15 c5 -14 -10 -15 -116 -13 -86 2 -123 7 -126 16 -3 9 25 12 116
12 98 0 121 -3 126 -15z m566 -117 c29 -51 62 -108 73 -125 19 -32 19 -33 0
-33 -13 0 -37 31 -82 110 l-63 110 -119 0 c-101 0 -118 2 -113 15 5 12 29 15
128 15 l122 0 54 -92z m184 77 c-5 -12 -27 -15 -109 -15 -82 0 -104 3 -109 15
-5 13 11 15 109 15 98 0 114 -2 109 -15z m859 -66 c26 -45 47 -87 47 -95 0
-35 -20 -14 -69 72 -30 51 -57 92 -59 89 -3 -2 18 -45 47 -94 28 -49 51 -91
51 -95 0 -3 -6 -6 -14 -6 -8 0 -37 39 -65 87 -46 81 -49 89 -34 105 29 32 47
21 96 -63z m41 16 c34 -58 39 -85 17 -85 -4 0 -13 10 -19 23 -6 12 -25 46 -42
75 -27 46 -28 52 -12 52 11 0 31 -23 56 -65z m35 25 c13 -23 20 -48 17 -57 -8
-19 -14 -13 -50 50 -24 43 -25 47 -8 47 11 0 27 -16 41 -40z m41 20 c7 -12 7
-26 2 -36 -7 -13 -11 -12 -24 8 -30 47 -30 48 -9 48 11 0 25 -9 31 -20z
m-2450 -124 c-31 -54 -54 -76 -66 -63 -3 3 13 37 36 77 24 39 40 73 38 76 -3
2 -26 -32 -52 -76 -25 -44 -53 -80 -61 -80 -8 0 -15 3 -15 6 0 3 26 48 57 101
l56 97 20 -40 19 -40 -32 -58z m1450 97 c0 -1 -3 -8 -6 -17 -5 -13 -22 -16
-80 -16 -41 0 -74 2 -74 4 0 2 -2 10 -5 18 -4 10 13 13 80 13 47 0 85 -1 85
-2z m320 -13 c10 -18 8 -20 -30 -20 -38 0 -40 2 -30 20 6 11 19 20 30 20 11 0
24 -9 30 -20z m-495 -95 c52 -91 63 -105 86 -105 15 0 29 -7 33 -15 4 -12 -3
-15 -37 -15 l-42 0 -58 105 -59 105 -124 0 c-106 0 -123 2 -118 15 5 12 29 15
133 15 l126 0 60 -105z m993 14 c36 -64 37 -69 18 -69 -21 0 -88 118 -80 142
6 19 6 19 18 1 7 -10 27 -43 44 -74z m-1017 -56 l64 -108 47 3 c39 2 49 -1 58
-18 11 -20 10 -21 -57 -18 l-67 3 -64 108 -63 107 -120 0 c-109 0 -131 5 -112
23 3 4 61 7 128 7 l122 0 64 -107z m173 92 c-4 -10 -21 -15 -54 -15 -30 0 -52
6 -60 15 -11 13 -4 15 53 15 55 0 65 -3 61 -15z m374 -2 c3 -10 -13 -13 -57
-13 -57 0 -71 6 -54 24 12 12 106 2 111 -11z m-1745 -5 c6 -18 -30 -88 -49
-95 -26 -10 -26 4 3 56 29 52 38 60 46 39z m2170 -37 c31 -56 32 -61 13 -61
-17 0 -66 80 -59 97 8 22 17 15 46 -36z m-998 -91 l60 -105 79 -5 c51 -3 81
-10 84 -17 3 -10 -19 -13 -87 -13 l-90 0 -64 108 -63 107 -117 3 c-108 2 -128
7 -110 26 4 3 61 5 127 4 l120 -3 61 -105z m173 98 c-3 -7 -17 -13 -33 -13
-16 0 -30 6 -32 13 -3 8 7 12 32 12 25 0 35 -4 33 -12z m422 -3 c11 -13 2 -15
-74 -15 -79 0 -97 5 -79 23 3 4 37 7 73 7 48 0 71 -4 80 -15z m-1742 -30 c-3
-20 -34 -43 -43 -33 -4 4 1 20 11 37 19 31 39 28 32 -4z m2107 5 c19 -36 19
-40 0 -40 -18 0 -37 34 -29 54 8 22 11 20 29 -14z m-346 -14 c30 -19 2 -26
-99 -26 -105 0 -122 4 -101 26 11 10 183 10 200 0z m-639 -101 l58 -100 100
-3 c73 -2 103 -7 112 -17 11 -13 -3 -15 -108 -15 l-120 0 -59 103 -59 102
-122 3 c-113 2 -134 7 -115 26 4 3 63 5 131 4 l124 -3 58 -100z m-1452 4 c19
-34 31 -67 27 -76 -7 -21 -14 -13 -60 70 -32 58 -34 67 -18 67 12 0 29 -21 51
-61z m40 21 c21 -37 22 -60 4 -60 -4 0 -20 23 -35 50 -25 45 -26 50 -10 50 11
0 28 -17 41 -40z m37 19 c12 -37 -12 -45 -29 -10 -16 30 -16 31 3 31 11 0 23
-9 26 -21z m636 -62 l46 -82 128 -5 129 -5 61 -105 60 -105 104 -5 c72 -3 106
-9 109 -18 3 -10 -22 -12 -114 -10 l-118 3 -61 105 -60 105 -127 5 -127 5 -56
94 c-30 51 -55 95 -55 97 0 2 8 4 18 4 11 0 33 -29 63 -83z m39 20 l35 -62
127 -3 126 -3 61 -104 61 -105 75 0 c65 0 76 -3 85 -20 11 -20 9 -21 -81 -18
l-93 3 -63 108 -64 107 -124 0 -124 0 -34 58 c-58 97 -60 102 -40 102 11 0 31
-23 53 -63z m25 44 c3 -11 15 -31 26 -45 20 -25 23 -26 142 -26 l122 0 60
-105 60 -104 54 -3 c34 -2 56 -8 59 -16 3 -10 -12 -12 -65 -10 l-68 3 -59 103
-59 102 -123 0 c-137 0 -132 -2 -178 88 -16 31 -16 32 3 32 11 0 22 -9 26 -19z
m50 -1 c6 -19 15 -20 134 -20 l127 0 63 -110 c57 -98 66 -110 91 -110 16 0 30
-7 34 -15 4 -12 -3 -15 -37 -15 l-43 0 -62 110 -63 109 -126 3 -127 3 -19 33
c-19 32 -19 32 1 32 12 0 23 -9 27 -20z m358 -99 c37 -65 67 -121 67 -125 0
-3 -6 -6 -14 -6 -8 0 -43 49 -78 110 l-63 110 -126 0 c-103 0 -128 3 -133 15
-5 13 15 15 137 15 l142 0 68 -119z m17 112 c0 -5 -9 -19 -20 -33 -17 -22 -19
-23 -25 -7 -4 9 -2 24 5 32 13 16 40 21 40 8z m50 3 c0 -2 -12 -24 -26 -50
-26 -47 -38 -56 -47 -33 -6 17 40 87 58 87 8 0 15 -2 15 -4z m50 0 c0 -2 -19
-36 -41 -76 -30 -52 -45 -68 -53 -60 -8 8 -3 25 18 63 37 67 45 77 62 77 8 0
14 -2 14 -4z m48 -4 c-10 -27 -104 -182 -109 -182 -4 0 -9 6 -12 13 -4 11 16
51 80 155 12 20 49 33 41 14z m750 -4 c-3 -9 -36 -14 -105 -16 -83 -2 -102 0
-106 13 -6 13 9 15 104 15 84 0 110 -3 107 -12z m572 -85 c30 -54 56 -103 58
-109 2 -7 -6 -26 -16 -43 -23 -37 -19 -40 -91 87 l-53 92 -118 0 c-102 0 -119
2 -114 15 5 12 29 15 128 15 l121 0 59 -101 c32 -55 60 -98 63 -95 3 2 -22 50
-54 105 l-58 101 -122 0 c-105 0 -122 2 -117 15 5 12 29 15 133 15 l126 0 55
-97z m-1991 -15 c42 -74 48 -88 32 -88 -23 0 -115 154 -106 178 7 20 12 14 74
-90z m701 79 c0 -7 -20 -46 -45 -87 -25 -41 -45 -81 -45 -88 0 -8 26 -57 57
-110 31 -53 56 -101 56 -107 0 -6 -25 -54 -56 -107 -31 -53 -57 -102 -57 -110
0 -7 26 -56 56 -108 31 -52 57 -100 57 -105 0 -6 -26 -57 -58 -113 -42 -74
-63 -102 -77 -102 -19 0 -19 0 0 33 63 104 103 179 100 185 -2 4 -29 53 -62
110 l-58 102 61 105 c34 57 61 106 61 109 0 2 -27 52 -61 110 l-60 106 56 100
c51 89 75 114 75 77z m694 -22 c-5 -12 -24 -15 -84 -15 -60 0 -79 3 -84 15 -4
13 9 15 84 15 75 0 88 -2 84 -15z m-1406 -143 c-18 -8 -34 8 -62 60 -19 36
-27 61 -22 73 6 15 15 5 50 -55 23 -41 38 -77 34 -78z m743 36 c-11 -20 -21
-42 -21 -48 0 -6 25 -55 56 -108 31 -53 57 -102 57 -108 0 -6 -25 -54 -56
-107 -31 -53 -57 -102 -57 -109 0 -7 27 -58 59 -113 l60 -100 -23 -40 c-13
-22 -41 -70 -62 -107 -26 -46 -44 -68 -57 -68 -18 0 -18 1 1 33 94 157 105
180 96 196 -6 9 -34 57 -63 108 l-53 91 61 106 c34 58 61 108 61 111 0 3 -27
53 -61 111 l-60 105 32 55 c17 30 29 57 26 60 -6 6 -67 -99 -67 -116 0 -6 26
-55 57 -108 31 -53 56 -101 56 -107 0 -6 -25 -55 -56 -108 -31 -53 -57 -101
-57 -108 0 -7 25 -55 56 -108 31 -53 57 -101 57 -107 0 -6 -26 -57 -59 -113
-40 -69 -64 -101 -77 -101 -19 0 -18 2 70 150 18 30 33 58 33 62 0 3 -27 54
-61 112 l-61 106 61 104 c34 58 61 107 61 111 0 4 -27 53 -61 111 -33 57 -59
107 -56 111 2 5 23 41 47 82 l43 74 20 -39 20 -39 -22 -37z m639 75 c0 -23
-18 -33 -61 -33 -27 0 -49 2 -49 4 0 2 -2 11 -6 19 -4 11 7 14 55 13 34 -1 61
-2 61 -3z m573 -103 c59 -101 64 -115 48 -125 -5 -3 -35 40 -66 95 l-57 100
-124 0 c-116 0 -124 1 -115 18 8 15 23 17 132 14 l124 -3 58 -99z m-2024 40
c28 -45 29 -50 12 -50 -22 0 -65 66 -57 86 8 21 12 18 45 -36z m1425 5 c-4 -8
-16 -15 -29 -15 -12 0 -28 7 -35 15 -11 13 -7 15 28 15 33 0 40 -3 36 -15z
m576 -91 c46 -80 59 -109 50 -118 -8 -8 -13 -7 -20 4 -5 8 -31 53 -58 100
l-49 85 -121 3 c-112 2 -134 7 -115 25 3 4 61 7 129 7 l122 0 62 -106z m-2038
66 c16 -29 16 -30 -2 -30 -21 0 -40 28 -33 48 7 19 17 14 35 -18z m890 18 c3
-7 0 -24 -5 -39 -9 -22 -2 -39 48 -125 32 -54 58 -103 58 -109 0 -6 -25 -54
-56 -107 -32 -53 -57 -102 -57 -110 0 -7 26 -56 56 -108 31 -52 57 -99 57
-105 0 -5 -26 -56 -58 -113 -43 -73 -65 -102 -78 -102 -18 0 -18 2 -5 23 8 12
37 60 63 106 37 63 46 87 38 100 -5 9 -33 57 -62 108 l-53 92 61 105 c34 57
61 107 61 111 0 4 -27 53 -60 110 l-61 103 18 36 c17 37 28 45 35 24z m1361
-20 l17 -27 -40 1 c-22 0 -37 4 -34 9 3 5 10 6 16 3 7 -5 9 -2 5 8 -4 12 13
46 18 35 1 -1 9 -14 18 -29z m-241 -103 c53 -90 66 -130 45 -130 -4 0 -33 45
-65 100 l-57 100 -118 3 c-108 2 -128 7 -110 26 4 3 61 5 127 4 l120 -3 58
-100z m-1037 -22 c38 -65 68 -122 68 -128 0 -6 -25 -54 -56 -108 -31 -54 -57
-103 -57 -108 0 -6 27 -57 60 -114 l60 -103 -63 -106 c-43 -74 -68 -106 -81
-106 -17 0 -17 2 -4 22 8 13 37 61 63 107 37 63 46 87 38 100 -5 9 -33 57 -62
108 l-53 92 61 105 c34 57 61 107 61 111 0 4 -27 53 -60 110 -38 64 -58 109
-54 119 3 9 7 16 9 16 1 0 33 -53 70 -117z m-1199 -4 l50 -84 126 -3 126 -3
61 -104 61 -104 126 -3 127 -3 61 -107 61 -107 104 -3 c74 -2 106 -7 109 -16
3 -10 -22 -12 -114 -10 l-118 3 -59 103 -60 102 -123 0 -124 0 -24 38 c-13 20
-42 70 -65 110 l-42 72 -124 0 -124 0 -55 94 c-31 52 -56 100 -56 106 0 28 29
-3 76 -81z m24 44 c61 -101 46 -93 183 -93 l122 0 60 -105 60 -105 126 0 126
0 63 -110 63 -110 78 0 c59 0 78 -3 83 -15 4 -13 -9 -15 -87 -15 l-92 0 -63
110 -64 109 -126 3 -126 3 -58 100 -58 100 -127 5 -126 5 -43 70 c-24 39 -44
76 -44 83 0 26 22 10 50 -35z m48 2 l27 -44 126 -1 126 0 63 -110 63 -110 126
0 126 0 59 -105 60 -105 52 0 c39 0 53 -4 58 -16 4 -9 5 -18 4 -19 -2 -1 -32
0 -68 3 l-65 4 -59 104 -59 104 -127 0 -126 0 -63 110 -62 110 -125 0 -124 0
-30 48 c-16 26 -30 53 -30 60 0 25 22 11 48 -33z m38 20 c16 -24 19 -25 143
-25 l126 -1 61 -107 62 -107 113 -1 c63 -1 119 -2 126 -3 7 0 40 -48 73 -106
55 -94 65 -105 90 -105 16 0 30 -7 34 -15 4 -12 -4 -15 -38 -15 l-44 0 -59
105 -58 105 -127 0 -127 0 -62 110 -63 110 -126 0 -126 0 -17 29 c-30 51 -13
74 19 26z m297 6 c8 -9 37 -57 66 -108 l52 -92 127 -3 126 -3 68 -115 c37 -63
68 -118 68 -122 0 -5 -7 -8 -15 -8 -8 0 -33 33 -56 73 -23 39 -52 89 -65 110
l-24 37 -124 0 -123 0 -60 103 -59 102 -129 5 c-114 4 -130 7 -133 23 -3 16 7
17 132 15 110 -1 139 -5 149 -17z m80 12 c2 -5 -3 -21 -13 -36 -14 -22 -19
-25 -28 -14 -9 10 -8 19 4 35 15 22 29 28 37 15z m57 2 c0 -3 -14 -27 -31 -55
-27 -44 -49 -57 -49 -29 0 19 51 89 65 89 8 0 15 -2 15 -5z m41 -8 c-1 -15
-73 -137 -81 -137 -19 0 -15 27 8 65 49 80 53 86 63 83 6 -2 10 -7 10 -11z
m57 5 c-1 -4 -27 -49 -57 -101 -39 -68 -56 -90 -65 -81 -8 8 -3 25 18 63 54
97 76 127 92 127 9 0 14 -4 12 -8z m752 -2 c0 -23 -33 -31 -121 -28 -75 2 -94
6 -97 18 -2 13 14 16 108 17 60 1 110 -2 110 -7z m600 5 c0 -2 -8 -18 -19 -35
-14 -25 -20 -28 -29 -17 -9 10 -8 19 4 35 13 19 44 31 44 17z m50 0 c0 -3 -14
-27 -31 -55 -27 -44 -49 -57 -49 -29 0 19 51 89 65 89 8 0 15 -2 15 -5z m15
-62 c-47 -84 -53 -92 -65 -74 -8 13 -2 26 56 119 8 12 21 22 30 22 12 0 7 -15
-21 -67z m83 59 c-1 -4 -27 -49 -57 -101 -39 -68 -56 -90 -65 -81 -8 8 -3 25
18 63 54 97 76 127 92 127 9 0 14 -4 12 -8z m-1475 -24 c7 -22 -86 -177 -106
-178 -22 0 -24 -6 38 103 50 88 59 97 68 75z m1502 2 c10 -16 -88 -179 -108
-180 -22 0 -24 -6 38 103 50 86 58 96 70 77z m-807 -32 c-3 -9 -31 -14 -80
-16 -61 -2 -77 0 -81 13 -5 13 6 15 79 15 64 0 85 -3 82 -12z m-699 -83 c-23
-44 -40 -65 -52 -65 -22 0 -23 -5 27 83 27 49 42 65 49 58 8 -8 1 -30 -24 -76z
m1500 0 c-23 -44 -40 -65 -52 -65 -22 0 -23 -5 27 83 27 49 42 65 49 58 8 -8
1 -30 -24 -76z m-825 40 c-4 -11 -21 -15 -59 -15 -38 0 -55 4 -59 15 -4 12 6
15 59 15 53 0 63 -3 59 -15z m-599 -86 c-4 -10 -15 -19 -26 -19 -23 0 -24 4
-3 36 9 13 14 27 11 31 -3 3 -14 -11 -23 -31 -11 -22 -25 -36 -36 -36 -26 0
-27 -4 28 87 l17 27 19 -38 c11 -21 16 -46 13 -57z m1500 0 c-4 -10 -15 -19
-26 -19 -23 0 -24 4 -3 36 9 13 14 27 11 31 -3 3 -14 -11 -23 -31 -11 -22 -25
-36 -36 -36 -24 0 -23 1 14 61 l31 52 19 -37 c11 -21 16 -46 13 -57z m-925 57
c0 -20 -16 -36 -36 -36 -13 0 -24 2 -24 4 0 2 -3 11 -6 20 -5 13 1 16 30 16
20 0 36 -2 36 -4z m-1200 -93 c0 -5 -9 -21 -19 -37 -18 -28 -19 -28 -26 -7 -4
13 -1 28 5 36 13 16 40 20 40 8z m50 2 c0 -3 -13 -28 -29 -56 -22 -39 -30 -47
-39 -36 -14 16 31 97 54 97 8 0 14 -2 14 -5z m50 -1 c0 -17 -83 -144 -91 -139
-5 4 -9 10 -9 15 0 19 73 130 86 130 8 0 14 -3 14 -6z m50 1 c0 -12 -103 -185
-110 -185 -22 0 -12 32 33 107 27 46 56 83 63 83 8 0 14 -2 14 -5z m748 -7
c-3 -9 -34 -13 -108 -13 -74 0 -105 4 -107 13 -4 9 22 12 107 12 85 0 111 -3
108 -12z m569 -81 c78 -140 53 -126 244 -128 l167 -2 -17 -28 c-22 -40 -37
-36 -32 7 1 6 -6 11 -14 11 -8 0 -15 -2 -15 -4 0 -3 29 -53 64 -113 36 -60 61
-112 55 -115 -15 -10 -25 1 -88 110 l-61 105 -125 0 -124 0 -42 73 c-23 39
-52 89 -65 110 l-24 37 -121 0 c-107 0 -120 2 -109 15 10 12 38 15 134 15
l121 0 52 -93z m33 88 c0 -4 -7 -20 -17 -38 -16 -31 -16 -31 -26 -10 -7 16 -6
27 3 38 12 14 40 21 40 10z m50 0 c0 -3 -13 -28 -29 -56 -22 -39 -30 -47 -39
-36 -14 16 31 97 54 97 8 0 14 -2 14 -5z m50 -1 c0 -17 -83 -144 -91 -139 -5
4 -9 10 -9 15 0 19 73 130 86 130 8 0 14 -3 14 -6z m50 1 c0 -12 -103 -185
-110 -185 -4 0 -10 6 -12 13 -7 17 90 177 108 177 7 0 14 -2 14 -5z m30 -28
c0 -6 -21 -48 -47 -94 -33 -57 -54 -83 -67 -83 -17 0 -17 2 -4 23 8 12 34 57
58 99 39 69 60 88 60 55z m-810 -27 c-9 -17 -21 -20 -80 -20 -59 0 -71 3 -80
20 -10 19 -8 20 80 20 88 0 90 -1 80 -20z m512 11 c4 -1 35 -48 69 -106 l61
-104 126 -3 126 -3 61 -105 c51 -88 66 -106 90 -110 16 -3 30 -11 33 -18 3
-10 -7 -12 -38 -10 l-43 3 -61 107 -61 108 -126 0 -126 0 -59 103 -59 102
-122 3 c-118 3 -134 7 -114 28 8 7 183 10 243 5z m323 -21 c10 -16 -68 -140
-88 -140 -17 0 -16 5 9 48 15 26 35 59 43 74 17 30 26 34 36 18z m-857 -32
c-7 -20 -104 -23 -111 -3 -5 12 4 15 54 15 44 0 60 -3 57 -12z m576 -93 l60
-105 121 0 c142 0 127 9 204 -127 l53 -93 53 0 c38 0 54 -4 59 -15 4 -12 -6
-15 -62 -15 l-68 0 -59 103 c-32 56 -60 103 -61 105 -1 2 -58 4 -127 5 -69 2
-128 5 -130 7 -2 3 -30 51 -63 108 l-59 102 -122 0 c-105 0 -122 2 -117 15 5
12 29 15 133 15 l126 0 59 -105z m286 30 c-16 -29 -31 -45 -43 -45 -18 0 -18
2 -5 23 8 12 23 37 32 56 13 25 21 30 29 22 8 -8 5 -23 -13 -56z m-886 20 c-4
-8 -16 -15 -29 -15 -12 0 -28 7 -35 15 -11 13 -7 15 28 15 33 0 40 -3 36 -15z
m576 -95 l62 -110 126 0 127 0 59 -105 60 -105 78 0 c43 0 78 -2 78 -4 0 -2 2
-10 5 -18 4 -10 -13 -12 -87 -10 l-93 4 -60 104 -59 104 -126 0 -125 0 -63
110 -64 110 -119 0 c-101 0 -118 2 -113 15 5 12 29 15 129 15 l123 0 62 -110z
m380 35 c0 -3 -7 -5 -15 -5 -9 0 -12 6 -9 18 5 15 4 15 -9 -1 -9 -10 -23 -17
-31 -15 -14 3 -13 8 5 37 l20 34 20 -32 c10 -17 19 -34 19 -36z m596 -2 c-9
-9 -36 6 -42 22 -4 8 -3 23 0 32 6 14 10 11 27 -16 11 -18 18 -36 15 -38z
m-1002 -75 l61 -107 126 -1 126 0 63 -110 63 -110 103 0 c81 0 103 -3 108 -15
5 -13 -12 -15 -112 -15 l-118 0 -62 110 -63 109 -127 3 -127 3 -59 103 -59
102 -124 0 c-121 0 -123 0 -113 20 10 19 19 20 132 18 l121 -3 61 -107z
m-1011 31 c-24 -41 -40 -37 -34 10 2 7 -2 10 -8 7 -5 -4 -12 -2 -15 3 -3 5 12
9 34 9 l40 1 -17 -30z m34 -24 c-27 -48 -33 -53 -40 -37 -11 25 28 92 53 92
17 0 15 -6 -13 -55z m49 -2 c-18 -32 -37 -66 -43 -76 -8 -15 -12 -16 -20 -5
-16 19 51 138 78 138 16 0 15 -6 -15 -57z m98 42 c14 -14 12 -22 -20 -78 -19
-34 -40 -72 -46 -84 -6 -13 -20 -23 -30 -23 -11 0 -17 3 -15 8 2 4 26 44 52
90 26 46 45 85 42 88 -3 3 -23 -28 -45 -68 -23 -40 -48 -82 -56 -93 -13 -18
-15 -18 -21 -3 -4 10 11 47 41 97 48 84 67 96 98 66z m569 -16 c-24 -41 -40
-37 -34 10 2 7 -2 10 -8 7 -5 -4 -12 -2 -15 3 -3 5 12 9 34 9 l40 1 -17 -30z
m34 -24 c-27 -48 -33 -53 -40 -37 -11 25 28 92 53 92 17 0 15 -6 -13 -55z m49
-2 c-18 -32 -37 -66 -43 -76 -8 -15 -12 -16 -20 -5 -16 19 51 138 78 138 16 0
15 -6 -15 -57z m98 41 c15 -14 14 -21 -16 -72 -18 -32 -39 -69 -48 -84 -8 -16
-23 -28 -33 -28 -20 0 -20 2 46 113 22 37 37 70 34 73 -3 3 -23 -28 -45 -68
-57 -102 -69 -117 -77 -97 -3 9 14 50 41 97 48 85 67 98 98 66z m603 -39 c-27
-48 -33 -53 -40 -37 -11 25 28 92 53 92 17 0 15 -6 -13 -55z m49 -2 c-18 -32
-37 -66 -43 -76 -8 -15 -12 -16 -20 -5 -16 19 51 138 78 138 16 0 15 -6 -15
-57z m72 35 c-8 -13 -34 -56 -57 -95 -24 -40 -47 -70 -52 -67 -15 9 -11 22 37
104 34 57 52 80 66 80 19 0 19 -2 6 -22z m-1944 -33 c4 -12 -3 -15 -36 -15
-35 0 -39 2 -28 15 7 8 23 15 35 15 13 0 25 -7 29 -15z m476 -80 c-24 -44 -41
-65 -53 -65 -17 0 -17 3 6 43 13 23 32 57 42 76 12 25 20 30 28 22 9 -9 3 -28
-23 -76z m751 0 c-24 -45 -41 -65 -54 -65 -16 0 -15 6 14 58 53 93 53 92 64
81 7 -7 -1 -30 -24 -74z m-1211 51 c0 -2 2 -10 5 -18 4 -10 -8 -13 -55 -13
-62 0 -68 3 -48 23 11 11 98 18 98 8z m515 -26 c10 -16 -38 -90 -58 -90 -16 0
-15 5 9 50 27 50 38 59 49 40z m750 0 c10 -16 -38 -90 -58 -90 -16 0 -15 5 10
50 28 51 37 58 48 40z m-1231 -35 c4 -13 -9 -15 -84 -15 -75 0 -88 2 -84 15 9
22 159 22 168 0z m501 -34 c-3 -12 -15 -21 -26 -21 -19 0 -19 1 -3 31 17 35
41 27 29 -10z m750 0 c-3 -12 -15 -21 -26 -21 -19 0 -19 1 -3 31 17 35 41 27
29 -10z m-1227 -8 c3 -10 -23 -13 -107 -13 -95 0 -110 2 -104 15 4 13 23 15
106 13 69 -2 102 -7 105 -15z m2 -32 c0 -6 -5 -13 -11 -17 -14 -9 -185 -8
-199 1 -29 18 0 25 100 25 62 0 110 -4 110 -9z m750 0 c0 -6 -4 -12 -9 -15 -9
-6 -200 -14 -366 -15 l-91 -1 -59 -105 c-41 -72 -66 -105 -78 -105 -10 0 -16
3 -14 8 2 4 34 60 71 125 l68 117 239 0 c143 0 239 -4 239 -9z m1350 4 c0 -4
-7 -20 -16 -37 -14 -27 -18 -29 -26 -15 -11 21 6 57 27 57 8 0 15 -2 15 -5z
m50 -1 c0 -11 -55 -104 -61 -104 -4 0 -9 6 -12 13 -7 17 42 97 59 97 8 0 14
-3 14 -6z m50 0 c0 -4 -19 -40 -42 -80 -32 -57 -44 -71 -51 -59 -11 20 57 145
78 145 8 0 15 -3 15 -6z m-2230 -59 c-16 -20 -151 -17 -158 3 -3 9 18 12 83
12 78 0 86 -2 75 -15z m750 0 c-10 -12 -47 -15 -210 -15 l-198 0 -62 -105 -61
-105 -40 0 c-48 0 -50 22 -3 30 25 4 38 21 88 108 l59 102 220 0 c194 0 218
-2 207 -15z m-772 -37 c-3 -8 -24 -13 -58 -13 -34 0 -55 5 -57 13 -4 9 12 12
57 12 45 0 61 -3 58 -12z m750 0 c-4 -10 -53 -14 -183 -18 l-179 -5 -63 -107
-64 -108 -65 0 c-82 0 -85 22 -4 30 l54 5 63 108 64 107 190 0 c148 0 190 -3
187 -12z m-778 -48 c-6 -11 -19 -20 -30 -20 -11 0 -24 9 -30 20 -10 18 -8 20
30 20 38 0 40 -2 30 -20z m752 4 c-8 -14 -30 -16 -154 -15 -167 2 -148 13
-227 -126 l-53 -93 -95 0 c-84 0 -94 2 -83 15 9 11 33 15 86 15 l73 0 42 72
c23 40 52 90 65 111 l24 37 166 0 c148 0 164 -2 156 -16z m-147 -139 c25 -45
31 -65 24 -75 -6 -9 -12 -11 -15 -5 -2 6 -22 41 -44 79 -35 59 -37 67 -19 64
12 -2 33 -25 54 -63z m34 29 c12 -19 21 -41 21 -49 0 -32 -18 -20 -48 31 -27
48 -29 54 -12 54 10 0 27 -15 39 -36z m65 25 c-3 -5 -10 -7 -15 -3 -6 3 -10 0
-8 -7 6 -46 -9 -51 -33 -10 l-16 30 39 -1 c21 0 36 -4 33 -9z m651 -54 l36
-65 78 0 c61 0 80 -3 85 -15 4 -13 -9 -15 -87 -15 l-93 0 -47 80 c-40 68 -44
80 -28 80 13 0 31 -21 56 -65z m37 23 c22 -41 26 -43 77 -48 32 -3 56 -10 59
-18 3 -10 -12 -12 -63 -10 l-67 3 -34 58 c-30 51 -31 57 -14 57 12 0 27 -16
42 -42z m84 31 c11 -18 -6 -24 -28 -10 -17 10 -19 10 -16 -1 3 -7 16 -14 31
-16 14 -2 31 -10 37 -18 11 -12 5 -14 -33 -14 -41 0 -47 3 -65 34 l-20 34 44
0 c24 0 47 -4 50 -9z m478 -4 c-5 -12 -26 -15 -104 -15 -74 0 -100 4 -110 15
-11 13 2 15 103 15 99 0 116 -2 111 -15z m-24 -33 c0 -21 -25 -27 -91 -22 -45
3 -74 10 -77 18 -3 9 18 12 82 12 47 0 86 -4 86 -8z m-30 -57 c-16 -19 -101
-17 -108 3 -3 9 13 12 58 12 55 0 61 -2 50 -15z m-22 -37 c-3 -7 -17 -13 -33
-13 -16 0 -30 6 -32 13 -3 8 7 12 32 12 25 0 35 -4 33 -12z"/>
<path d="M273 905 l-17 -35 -128 0 c-70 0 -128 -2 -128 -4 0 -2 27 -51 59
-107 33 -57 58 -105 56 -108 -12 -11 -36 14 -70 73 -50 85 -58 78 -10 -8 29
-52 33 -66 21 -66 -9 0 -25 15 -36 33 -11 17 -20 25 -20 16 0 -8 6 -21 12 -27
10 -10 10 -15 -2 -22 -10 -6 8 -10 54 -12 l68 -3 69 -119 c38 -65 67 -121 65
-124 -14 -13 -39 16 -95 112 l-61 106 -58 -2 -57 -1 55 -6 55 -6 61 -105 c51
-88 65 -106 89 -110 16 -3 30 -11 33 -18 3 -10 -7 -12 -38 -10 l-43 3 -61 107
-61 108 -45 -2 -45 -1 40 -6 c39 -6 42 -10 104 -113 l64 -108 52 0 c38 0 55
-4 59 -15 4 -12 -6 -15 -63 -15 l-68 0 -59 105 c-58 102 -60 104 -94 103 -33
-1 -33 -1 -5 -5 27 -3 37 -16 90 -108 l59 -105 77 0 c59 0 78 -3 83 -15 4 -13
-9 -15 -87 -15 l-92 1 -60 104 c-46 82 -64 105 -80 104 -15 -1 -16 -2 -3 -6 9
-2 44 -53 79 -114 l62 -109 103 0 c81 0 103 -3 108 -15 5 -13 -12 -15 -112
-15 l-118 0 -63 111 c-35 60 -65 108 -68 106 -2 -3 1 -14 8 -25 10 -16 10 -26
1 -48 -7 -14 -11 -29 -8 -31 2 -2 7 5 11 16 3 12 10 21 15 21 19 0 16 -27 -8
-68 -13 -24 -22 -45 -19 -48 3 -3 15 13 27 36 16 31 25 39 32 32 16 -16 -20
-91 -46 -102 -13 -5 56 -9 166 -9 162 -1 187 -3 182 -16 -5 -12 -37 -15 -188
-17 l-181 -2 173 -3 c132 -3 173 -6 169 -16 -3 -9 -50 -13 -170 -15 -100 -1
-167 -6 -167 -12 0 -6 63 -10 161 -10 142 0 160 -2 149 -15 -10 -12 -43 -15
-164 -17 l-151 -2 148 -3 c112 -3 147 -7 144 -16 -2 -8 -47 -14 -148 -17
l-144 -6 137 -2 c116 -2 137 -4 132 -17 -5 -11 -33 -15 -137 -18 l-132 -3 135
-2 135 -2 37 68 c21 37 48 85 62 107 l24 40 -64 110 c-56 98 -62 112 -50 130
40 62 106 184 106 196 0 8 -27 59 -59 114 -52 87 -65 125 -42 125 3 0 37 -55
75 -121 54 -94 67 -125 60 -138 -6 -9 -34 -57 -63 -108 l-53 -92 62 -105 c34
-59 60 -112 57 -119 -2 -6 -30 -55 -60 -107 -31 -52 -54 -96 -51 -99 5 -6 1
-12 69 104 32 55 58 105 58 110 0 6 -25 54 -56 107 -31 53 -57 102 -57 110 0
7 27 59 59 115 l59 101 -74 128 c-46 81 -72 135 -68 146 9 31 -6 19 -23 -17z
m-171 -132 l49 -83 99 0 c89 0 100 -2 110 -20 10 -19 8 -20 -107 -20 l-118 0
-55 98 c-68 120 -66 115 -44 110 9 -1 39 -40 66 -85z m38 20 l35 -62 79 -3
c54 -2 81 -7 84 -16 3 -10 -17 -12 -89 -10 l-92 3 -44 73 c-24 41 -43 76 -43
79 0 2 8 3 17 1 10 -2 34 -31 53 -65z m38 19 c23 -41 24 -42 77 -42 38 0 54
-4 59 -15 4 -12 -6 -15 -62 -15 l-67 0 -30 52 c-40 70 -40 70 -19 66 10 -2 29
-22 42 -46z m34 28 c8 -12 24 -20 39 -20 22 0 39 -15 39 -36 0 -2 -18 -4 -39
-4 -34 0 -42 4 -60 36 -25 42 -25 44 -6 44 8 0 20 -9 27 -20z m52 4 c4 -11 0
-15 -16 -12 -12 2 -23 9 -26 16 -6 18 35 15 42 -4z m96 -219 c-9 -11 -35 -15
-105 -15 -70 0 -96 4 -105 15 -11 13 2 15 105 15 103 0 116 -2 105 -15z m-22
-37 c-3 -9 -29 -13 -83 -13 -54 0 -80 4 -82 13 -4 9 17 12 82 12 65 0 86 -3
83 -12z m-27 -45 c-14 -26 -98 -27 -112 -2 -9 18 -5 19 56 19 60 0 65 -2 56
-17z m-23 -45 c-7 -20 -54 -22 -61 -4 -5 13 1 16 29 16 24 0 34 -4 32 -12z
m-183 -248 c14 -26 14 -30 1 -30 -10 0 -13 6 -10 18 5 16 5 16 -6 0 -6 -10
-20 -18 -31 -18 -20 0 -20 1 -2 30 9 17 21 30 25 30 4 0 14 -13 23 -30z"/>
<path d="M1890 193 c0 -5 24 -48 53 -98 l53 -90 120 -1 119 0 -115 3 -115 4
-54 94 c-50 89 -61 106 -61 88z"/>
<path d="M2864 113 c-20 -38 -44 -78 -52 -91 -8 -12 -10 -22 -6 -22 5 0 31 38
57 85 l48 84 47 4 47 3 -52 2 -51 2 -38 -67z"/>
<path d="M2912 108 c-10 -18 -29 -50 -41 -70 -13 -21 -19 -38 -14 -38 5 0 23
27 41 60 31 55 36 60 68 60 19 0 34 5 34 10 0 6 -15 10 -34 10 -28 0 -38 -6
-54 -32z"/>
<path d="M2938 68 c-27 -41 -39 -68 -31 -68 4 0 18 18 30 39 13 23 32 41 45
44 21 4 20 4 -3 6 -18 1 -32 -7 -41 -21z"/>
</g>
</svg>
